<svg xmlns="http://www.w3.org/2000/svg" xmlns:xlink="http://www.w3.org/1999/xlink" viewBox="0 0 66 48" fill="#fff" fill-rule="evenodd" stroke="#000" stroke-linecap="round" stroke-linejoin="round"><use xlink:href="#A" x=".5" y=".5"/><symbol id="A" overflow="visible"><path d="M49.23 22.154H25.6l-2.954 11.323-2.954-11.323h-5.415c-4.43 0-7.877-3.446-7.877-7.877S9.846 6.4 14.277 6.4H49.23c4.43 0 7.877 3.446 7.877 7.877s-3.446 7.877-7.877 7.877M49.23 0H14.277C6.395.007.007 6.395 0 14.277c.007 7.882 6.395 14.27 14.277 14.277h1.477l6.892 17.723 6.892-17.723h20.185c7.882-.007 14.27-6.395 14.277-14.277C63.508 6.4 57.108 0 49.23 0" stroke="none" fill="#fff" fill-rule="nonzero"/></symbol></svg>
