<?xml version="1.0" standalone="no"?>
<!DOCTYPE svg PUBLIC "-//W3C//DTD SVG 20010904//EN"
 "http://www.w3.org/TR/2001/REC-SVG-20010904/DTD/svg10.dtd">
<svg version="1.0" xmlns="http://www.w3.org/2000/svg"
 width="260.000000pt" height="260.000000pt" viewBox="0 0 260.000000 260.000000"
 preserveAspectRatio="xMidYMid meet">
<metadata>
Created by potrace 1.11, written by Peter Selinger 2001-2013
</metadata>
<g transform="translate(0.000000,260.000000) scale(0.100000,-0.100000)"
fill="#000000" stroke="none">
<path d="M1112 2375 c-41 -47 -78 -85 -83 -85 -5 0 -9 -5 -9 -10 0 -9 -19 -34
-77 -97 -32 -34 -29 -39 19 -36 23 1 45 0 49 -3 4 -2 1 -23 -7 -46 -29 -83
-19 -124 70 -282 58 -104 95 -256 62 -256 -8 0 -14 8 -14 18 1 16 -2 29 -18
107 -20 99 -147 231 -249 259 -39 11 -89 17 -129 16 -62 -1 -76 -3 -76 -11 0
-4 -10 -9 -23 -13 -62 -15 -132 -132 -121 -203 2 -15 5 -37 7 -48 7 -44 46
-112 91 -158 48 -50 66 -53 66 -12 0 73 57 144 130 162 102 23 192 -6 228 -74
18 -32 15 -38 -20 -51 -34 -12 -63 -46 -53 -62 3 -5 18 -2 33 6 44 23 55 19
48 -18 -9 -44 -31 -66 -101 -96 -186 -82 -231 -122 -222 -196 7 -48 31 -82 83
-117 116 -79 319 -74 384 9 25 31 21 36 -16 21 -46 -18 -154 -13 -215 11 -63
24 -81 37 -98 68 -18 34 0 56 83 96 117 57 161 109 178 211 2 11 12 21 22 23
17 4 18 -1 12 -52 -3 -31 -11 -66 -17 -78 -14 -26 -6 -80 21 -138 12 -25 27
-58 35 -74 l13 -29 17 33 c26 50 61 153 61 175 -1 11 -4 25 -8 31 -8 12 -17
54 -23 102 -3 26 -1 32 15 32 13 0 22 -9 26 -27 6 -25 112 -241 124 -253 7 -7
11 -27 17 -71 3 -24 0 -39 -11 -48 -16 -14 -83 -22 -101 -12 -5 2 -21 6 -35 7
-14 2 -35 6 -47 9 -64 16 13 -55 89 -82 79 -29 191 -26 234 4 37 27 46 59 27
103 -14 35 -11 34 42 -13 40 -36 124 -69 173 -69 54 0 122 27 165 65 35 31 34
36 -5 28 -68 -13 -171 0 -229 30 -44 22 -80 63 -110 126 -13 27 -24 49 -25 51
-1 2 -17 6 -35 9 -60 9 -166 71 -189 110 l-21 35 23 -5 c13 -3 33 -9 46 -12
16 -5 22 -3 22 7 0 18 -25 40 -62 56 -28 11 -28 12 -12 46 34 71 160 105 222
59 68 -50 78 -152 27 -275 -11 -27 4 -22 85 26 150 90 194 156 193 296 0 100
-14 135 -79 197 -34 32 -55 43 -91 49 -27 5 -50 8 -53 7 -3 0 -27 -4 -55 -7
-93 -11 -148 -31 -179 -65 -10 -11 -23 -18 -27 -15 -5 3 -9 0 -9 -6 0 -6 -14
-25 -30 -43 -54 -57 -83 -132 -94 -236 -2 -25 -20 -39 -29 -24 -7 12 13 116
25 131 6 6 8 12 4 12 -7 0 55 126 89 179 12 20 28 60 35 88 12 46 12 59 -3
106 -9 30 -17 56 -17 59 0 3 19 4 43 3 23 -1 48 0 54 3 11 3 -54 81 -109 130
-9 9 -15 19 -12 24 3 4 -2 8 -10 8 -9 0 -16 4 -16 9 0 12 -123 141 -135 141
-6 0 -43 -38 -83 -85z m72 -281 c9 -23 -2 -34 -35 -34 -21 0 -29 5 -29 18 0
10 3 22 7 25 12 13 51 7 57 -9z m96 -10 c0 -21 -5 -24 -33 -24 -29 0 -33 3
-31 23 3 27 -1 24 34 25 25 1 30 -3 30 -24z m-97 -75 c5 -23 2 -26 -29 -26
-29 0 -34 4 -34 23 0 17 7 23 28 26 15 2 28 3 29 3 1 0 4 -12 6 -26z m95 -3
c1 -19 -3 -23 -26 -21 -40 3 -41 3 -39 25 1 15 8 20 32 20 25 0 31 -4 33 -24z
m-95 -58 c8 -24 -5 -38 -34 -38 -24 0 -29 4 -29 25 0 21 5 25 29 25 16 0 31
-6 34 -12z m95 -16 c3 -19 -1 -22 -27 -22 -17 0 -31 3 -32 8 0 4 -2 15 -4 25
-3 15 2 17 28 14 24 -2 33 -9 35 -25z"/>
<path d="M650 1027 c-51 -25 -44 -89 19 -168 31 -40 39 -57 36 -81 -5 -37 -16
-51 -37 -43 -9 4 -14 16 -12 31 2 18 -3 24 -17 24 -29 0 -26 -60 4 -81 21 -15
25 -15 57 0 33 15 35 19 38 70 2 36 -1 57 -11 64 -29 26 -70 91 -72 117 -2 17
4 31 16 38 15 10 20 8 30 -11 7 -12 11 -24 10 -27 -1 -3 5 -6 13 -8 12 -3 16
5 16 26 0 46 -46 71 -90 49z"/>
<path d="M889 922 c0 -15 -1 -60 -1 -99 -1 -50 -5 -76 -15 -84 -27 -23 -38 7
-38 104 0 85 -1 92 -20 92 -18 0 -20 -7 -20 -94 0 -96 11 -131 41 -131 8 0 12
-4 9 -10 -3 -5 10 -3 30 5 19 9 35 12 35 7 0 -4 16 -9 35 -10 26 -2 38 3 49
20 17 27 19 39 17 141 -1 70 -3 77 -21 77 -19 0 -20 -7 -20 -98 0 -54 -3 -102
-6 -105 -4 -3 -14 -2 -24 3 -14 8 -17 24 -16 104 1 83 -1 95 -16 100 -14 3
-18 -2 -19 -22z"/>
<path d="M1093 938 c-36 -9 -34 -2 -37 -128 -1 -55 2 -68 21 -87 26 -27 50
-29 81 -7 25 17 30 54 7 54 -8 0 -15 -3 -15 -8 0 -4 -10 -13 -21 -21 -25 -15
-39 -2 -39 38 0 20 4 23 25 19 14 -3 28 -2 30 2 3 5 13 6 23 4 15 -4 17 2 15
48 -1 29 -3 55 -4 58 -1 3 -1 7 -1 11 1 13 -55 25 -85 17z m53 -70 c2 -35 0
-38 -27 -38 -27 0 -29 3 -29 41 0 38 2 40 27 37 25 -3 28 -7 29 -40z"/>
<path d="M1268 942 c-15 -2 -34 -12 -41 -23 -8 -10 -18 -16 -23 -11 -4 4 -4 0
2 -8 6 -8 10 -48 10 -88 -1 -58 2 -76 16 -89 39 -35 108 -17 108 29 0 24 -16
23 -37 -2 -17 -20 -42 -27 -44 -12 -8 47 -3 57 26 59 17 0 36 2 43 2 13 1 17
98 4 116 -15 21 -38 30 -64 27z m33 -39 c1 -5 3 -23 5 -40 2 -30 0 -33 -25
-33 -25 0 -28 4 -29 32 0 18 1 36 4 40 6 10 44 11 45 1z"/>
<path d="M1734 925 c-3 -14 -5 -58 -2 -99 3 -64 7 -77 28 -95 14 -11 33 -20
44 -21 12 0 16 -5 12 -16 -3 -9 -6 -18 -6 -20 0 -2 -11 -4 -25 -4 -16 0 -23
-4 -19 -13 7 -18 55 -16 74 3 12 12 15 40 15 145 0 115 -2 130 -17 133 -20 4
-20 -1 -18 -125 1 -75 -3 -83 -34 -60 -14 10 -18 29 -18 100 -1 62 -5 88 -15
91 -8 3 -15 -4 -19 -19z"/>
<path d="M1399 924 c-10 -12 -14 -48 -14 -115 -1 -86 1 -99 16 -99 23 0 26 12
24 108 -1 70 2 85 17 93 27 14 35 -14 33 -113 -2 -80 0 -88 17 -88 16 0 18 9
19 68 2 140 -6 162 -61 162 -23 0 -43 -7 -51 -16z"/>
<path d="M1579 932 c-13 -6 -17 -25 -18 -102 -1 -52 3 -101 8 -109 14 -22 88
-19 105 4 14 20 11 45 -5 45 -6 0 -19 -9 -31 -19 -11 -11 -27 -17 -35 -14 -11
4 -12 8 -3 13 9 6 9 9 1 11 -26 9 1 36 36 37 20 1 38 4 41 7 12 12 6 101 -8
118 -15 17 -60 22 -91 9z m67 -64 c2 -35 -1 -38 -26 -38 -27 0 -30 9 -21 73 0
5 11 7 23 5 19 -2 23 -10 24 -40z"/>
<path d="M475 682 c-10 -11 -5 -311 6 -317 17 -11 23 3 25 58 2 75 2 76 22 72
9 -2 20 -4 23 -4 3 -1 5 -28 4 -61 -1 -44 2 -61 13 -65 26 -10 27 -9 21 145
-1 8 0 38 1 65 3 76 2 83 -22 96 -23 12 -84 19 -93 11z m76 -37 c7 -54 3 -99
-8 -111 -25 -25 -39 -6 -37 49 2 74 2 73 24 73 11 0 21 -5 21 -11z"/>
<path d="M1717 654 c-13 -13 -7 -24 14 -24 11 0 19 5 17 12 -5 14 -22 21 -31
12z"/>
<path d="M986 633 c-3 -8 -4 -19 0 -24 3 -5 -2 -12 -10 -15 -9 -3 -16 -13 -16
-21 0 -8 5 -11 10 -8 12 7 12 5 14 -109 1 -58 5 -91 13 -93 20 -7 26 17 26
106 0 74 3 88 20 100 20 14 20 14 -2 23 -15 5 -21 15 -19 29 4 26 -27 36 -36
12z"/>
<path d="M1587 643 c-4 -3 -7 -14 -7 -24 0 -9 -7 -19 -15 -23 -8 -3 -15 -12
-15 -20 0 -9 6 -13 14 -10 14 5 31 -22 18 -30 -4 -2 -5 -42 -2 -88 4 -65 8
-83 20 -83 12 0 15 18 15 100 1 86 3 100 18 103 23 5 21 14 -4 30 -14 9 -19
20 -16 33 5 18 -12 27 -26 12z"/>
<path d="M656 583 c-28 -14 -29 -19 -26 -128 1 -72 27 -105 78 -97 40 5 61 47
32 62 -19 10 -25 6 -21 -14 3 -13 -20 -25 -36 -19 -7 3 -13 18 -13 33 0 27 3
29 43 32 l42 3 -1 59 c-1 46 -5 61 -20 69 -27 16 -48 15 -78 0z m56 -28 c4 -5
8 -24 8 -40 0 -25 -4 -31 -25 -33 -23 -2 -25 2 -25 36 0 21 3 41 6 45 9 8 27
4 36 -8z"/>
<path d="M814 579 c-27 -30 -24 -64 9 -90 54 -43 68 -60 65 -77 -4 -22 -46
-28 -54 -8 -3 9 -14 16 -24 16 -13 0 -17 -5 -13 -20 7 -25 50 -47 81 -42 40 6
58 71 29 112 -9 13 -17 21 -17 16 0 -13 -54 34 -56 50 -1 8 6 19 16 24 15 8
22 5 34 -11 14 -21 36 -19 36 4 0 38 -78 57 -106 26z"/>
<path d="M1130 592 c-8 -3 -20 -12 -26 -20 -13 -18 -12 -171 2 -195 16 -27 63
-29 89 -3 21 21 24 53 16 188 -1 22 -51 40 -81 30z m48 -113 c0 -68 -3 -81
-19 -90 -16 -8 -21 -6 -28 13 -5 13 -6 27 -4 32 3 4 5 33 4 63 -1 64 2 73 28
66 17 -4 19 -15 19 -84z"/>
<path d="M1286 577 c-19 -20 -22 -32 -21 -117 0 -87 2 -95 20 -95 17 0 19 8
21 91 1 89 8 119 23 110 9 -6 37 11 30 19 -17 16 -52 12 -73 -8z"/>
<path d="M1426 593 c-12 -12 -6 -23 13 -23 10 0 24 -7 31 -15 20 -24 8 -49
-28 -56 -42 -9 -43 -10 -49 -61 -6 -54 10 -70 73 -74 50 -3 46 -13 46 111 0
108 0 103 -21 110 -35 11 -59 14 -65 8z m54 -164 c0 -31 -4 -39 -18 -39 -27 0
-39 17 -34 50 4 26 25 42 45 33 4 -2 7 -22 7 -44z"/>
<path d="M1706 571 c3 -14 7 -66 8 -116 1 -73 4 -90 16 -90 12 0 15 19 15 115
0 113 0 115 -23 116 -21 1 -23 -2 -16 -25z"/>
<path d="M1833 589 c-21 -8 -40 -45 -29 -56 3 -3 1 -14 -5 -24 -5 -11 -6 -19
-1 -19 4 0 7 -22 6 -48 -3 -52 1 -63 30 -79 20 -11 75 1 87 19 3 5 5 39 4 76
0 38 4 70 9 74 7 5 6 8 -3 8 -11 0 -11 3 0 17 8 10 9 14 2 10 -6 -4 -15 -1
-20 7 -10 18 -51 26 -80 15z m41 -25 c13 -5 16 -22 16 -84 0 -80 -12 -107 -40
-90 -24 15 -18 174 7 180 1 0 8 -3 17 -6z"/>
<path d="M2013 592 c-29 -4 -37 -30 -38 -135 -1 -90 2 -101 28 -91 11 4 14 23
11 89 -2 58 2 89 11 102 24 32 36 2 37 -98 0 -86 2 -95 20 -95 17 0 19 8 17
103 -2 59 -7 107 -13 112 -15 11 -47 17 -73 13z"/>
<path d="M2218 527 c-2 -6 -4 -46 -4 -87 l1 -75 83 0 c53 -1 87 4 93 11 6 8 7
14 0 18 -5 4 -12 2 -16 -4 -16 -25 -25 -5 -25 55 0 63 1 65 25 65 22 0 37 18
18 21 -59 10 -67 0 -65 -93 0 -49 -2 -58 -17 -58 -14 0 -17 10 -15 75 1 57 -2
75 -13 75 -12 0 -20 -72 -14 -132 1 -11 -5 -16 -16 -15 -16 1 -18 10 -17 74 0
68 -8 101 -18 70z"/>
<path d="M2151 371 c-9 -6 -10 -11 -2 -15 13 -8 31 1 31 15 0 11 -11 11 -29 0z"/>
</g>
</svg>
